IKResults																																			
version=1																																			
nRows=30																																			
nColumns=36																																			
inDegrees=yes																																			
																																			
"Units are S.I. units (second, meters, Newtons, ...)"																																			
"If the header above contains a line with 'inDegrees', this indicates whether rotational values are in degrees (yes) or radians (no)."																																			
																																			
endheader																																			
time	pelvis_tilt	pelvis_list	pelvis_rotation	pelvis_tx	pelvis_ty	pelvis_tz	hip_flexion_r	hip_adduction_r	hip_rotation_r	knee_angle_r	knee_angle_r_beta	ankle_angle_r	hip_flexion_l	hip_adduction_l	hip_rotation_l	knee_angle_l	knee_angle_l_beta	ankle_angle_l	lumbar_extension	lumbar_bending	lumbar_rotation	arm_flex_r	arm_add_r	arm_rot_r	elbow_flex_r	pro_sup_r	wrist_flex_r	wrist_dev_r	arm_flex_l	arm_add_l	arm_rot_l	elbow_flex_l	pro_sup_l	wrist_flex_l	wrist_dev_l
4.63	-2.16787123	3.14599424	177.5306641	0	0.86674878	-0.44512741	4.32672453	2.78831261	-5.79985759	19.10206861	0.33339399	11.02227694	14.62736038	-10.65769424	-14.24222325	22.59732538	0.39439773	1.95148424	-9.15689317	-0.8658928	-1.49730121	3.21004306	-5.00959717	-16.92164314	38.70971907	54.10681957	0	0	-1.79937843	-9.37242726	-10.44643516	41.30896125	50.89683209	0	0
4.64	-2.29273521	2.8096439	177.425837	0	0.8663254	-0.44497453	4.00277886	2.39802216	-5.62814854	19.47423415	0.33988951	11.68541859	14.71471879	-9.87021706	-14.30543128	20.46483663	0.35717878	1.7657934	-9.22938826	-1.11802274	-1.11857305	3.7049445	-5.17964487	-16.80558977	38.95694363	54.11277655	0	0	-2.39435399	-9.52206147	-10.6330676	41.13252572	50.8941834	0	0
4.65	-2.2733913	2.77585656	177.3732023	0	0.86558525	-0.44484769	3.76582838	2.34574997	-5.58744818	19.71854644	0.34415356	12.1514612	15.09207467	-9.51714613	-14.37434502	18.64233029	0.32537004	1.80364415	-9.32903582	-1.22059095	-0.77462464	4.26769201	-5.37370821	-16.57921347	39.51941247	54.12602099	0	0	-2.9799185	-9.62484847	-10.95814627	41.0480051	50.90200499	0	0
4.66	-2.25989452	2.73944354	177.3203716	0	0.864821	-0.44465614	3.54841964	2.27636505	-5.57257013	20.0080802	0.34920688	12.62007073	15.41567947	-9.1166275	-14.30664319	16.74016681	0.29217103	1.77482697	-9.46981021	-1.25548488	-0.33748138	4.66346869	-5.57012625	-16.42265542	40.00421965	54.13931843	0	0	-3.51000898	-9.67964128	-11.20721737	40.92661764	50.90525969	0	0
4.67	-2.19493324	2.70352274	177.2551164	0	0.86395057	-0.44443146	3.38417289	2.20618089	-5.54290852	20.29927629	0.35428921	13.09226974	15.75493508	-8.69423891	-14.11780202	14.80090737	0.25832457	1.74625695	-9.45070626	-1.41414748	0.06730805	5.02548727	-5.83704046	-16.32920566	40.46608152	54.15505442	0	0	-4.09495167	-9.67925025	-11.39686427	40.78461934	50.90527413	0	0
4.68	-2.03644746	2.70117478	177.1593823	0	0.86293317	-0.44422445	3.30243069	2.19293729	-5.39941139	20.55667209	0.35878161	13.56074877	16.16830426	-8.30733305	-13.81126451	12.88053436	0.22480773	1.79816562	-9.57803213	-1.38785606	0.67307925	4.69354861	-6.30955547	-14.92608154	43.56634202	54.2087005	0	0	-4.52951981	-9.37051584	-13.14464815	40.95984589	50.98605066	0	0
4.69	-1.98955403	2.65012686	177.0942808	0	0.86199927	-0.44388359	3.13427328	2.07321013	-5.47328072	20.88692774	0.36454566	14.03163595	16.36680982	-7.80665751	-13.31366643	10.81188941	0.18870307	1.65391297	-9.42958942	-1.32480949	1.04965521	5.10920673	-6.53149448	-14.8481394	43.80302083	54.21571906	0	0	-5.08130752	-9.37035677	-13.29637827	40.76947076	50.98158143	0	0
4.7	-1.88107699	2.61278936	177.0004054	0	0.86096507	-0.44357664	3.00544774	1.98573123	-5.44457104	21.17316135	0.36954138	14.50691573	16.58325517	-7.32808437	-12.67981488	8.7535396	0.15277809	1.55924704	-9.35941806	-1.20994803	1.36120268	5.49982632	-6.69133331	-14.71602918	44.25179636	54.23073504	0	0	-5.60836175	-9.37895456	-13.53939521	40.56910269	50.9818138	0	0
4.71	-1.76724266	2.63767107	176.88858	0	0.85988333	-0.44329712	2.87471125	1.96801275	-5.39163634	21.4480758	0.37433954	14.96209611	16.76306205	-6.93866066	-11.94092795	6.73720112	0.11758634	1.49859603	-9.16958207	-1.06332285	1.70294165	5.83013324	-6.8907133	-14.58418239	44.83318917	54.25145648	0	0	-6.09782787	-9.30757043	-13.83231265	40.3619126	50.98458994	0	0
4.72	-1.65746212	2.66214701	176.7745621	0	0.85876121	-0.44301819	2.71839767	1.94704261	-5.34787492	21.69394096	0.3786307	15.41406137	16.90724352	-6.57506601	-11.13356718	4.77406306	0.08332312	1.43359177	-8.87063303	-0.91300011	2.02603298	6.14624579	-7.09921042	-14.53703963	45.25352391	54.26814576	0	0	-6.6018971	-9.21193186	-14.02576331	40.2027301	50.98485351	0	0
4.73	-1.50934246	2.72484768	176.6408699	0	0.85753051	-0.44282977	2.56621117	1.97598636	-5.26826924	21.89671931	0.38216985	15.86420339	17.11912268	-6.327121	-10.37275601	3.02495829	0.05279548	1.45146558	-8.72119501	-0.858506	2.23840146	6.39885946	-7.19221109	-14.43522246	45.97491005	54.29808083	0	0	-7.06668844	-9.17389197	-14.40618605	39.96351158	50.99060228	0	0
4.74	-1.35137539	2.89831993	176.4925783	0	0.85621407	-0.44273656	2.4374015	2.1466958	-5.11224553	22.10328899	0.38577517	16.29916641	17.47437311	-6.30682921	-9.85000803	1.66369376	0.02903693	1.65128296	-8.47633061	-0.78174113	2.64272417	6.03800139	-7.47826752	-14.06036376	48.27765594	54.39289248	0	0	-7.10049537	-8.72595123	-16.4569832	39.3550293	51.06147005	0	0
4.75	-1.20673326	3.13586502	176.413788	0	0.85482464	-0.44262973	2.26270268	2.37731224	-5.07602565	22.27734028	0.38881294	16.7022284	18.05588417	-6.47044468	-9.68774489	0.90497745	0.01579484	1.98960818	-8.14836772	-0.6673338	2.77114963	6.40196448	-7.5628634	-14.04747495	48.39388627	54.39986107	0	0	-7.52514414	-8.65688879	-16.65727087	39.12923738	51.05828966	0	0
4.76	-1.23598463	3.24811922	176.4551856	0	0.85360164	-0.44242801	1.87082371	2.45612912	-5.12192322	22.37862787	0.39058074	16.80233817	18.62112795	-6.5422752	-9.80135075	0.56026853	0.00977853	2.12906618	-7.86340013	-0.56647227	2.90623944	6.77073893	-7.6155673	-14.0840377	48.59012125	54.41367211	0	0	-7.87807398	-8.58212387	-16.92435906	38.82282098	51.0551991	0	0
4.77	-0.62632	3.67278147	176.1875567	0	0.85159901	-0.44266867	2.19947081	2.94753988	-4.874069	22.59370276	0.3943345	17.53979342	19.84567483	-7.10402522	-10.03856051	0.45003593	0.00785461	3.16059441	-7.54070423	-0.57865067	2.97356341	7.03882255	-7.64358574	-14.13131754	48.73506552	54.42512011	0	0	-8.24350032	-8.51635878	-17.11334825	38.54924687	51.05008133	0	0
4.78	-0.4436946	3.95070021	176.0928116	0	0.85008942	-0.44268061	2.01003215	3.21963357	-4.85382	22.70132329	0.39621284	17.91046679	20.59148908	-7.44896174	-10.30058403	0.37156121	0.00648497	3.63315154	-7.16701803	-0.52898878	3.02647229	7.34323791	-7.66710552	-14.17649553	48.87805743	54.43555827	0	0	-8.54640951	-8.46286246	-17.24211647	38.30969987	51.04440081	0	0
4.79	-0.1999698	4.23048455	175.9271095	0	0.84851669	-0.44275799	1.85633108	3.5119494	-4.70125363	22.77558572	0.39750896	18.32193584	21.32549788	-7.81272019	-10.53933396	0.33020001	0.00576308	4.20045293	-6.82722034	-0.46715458	2.92641674	7.69661268	-7.5817516	-14.28218918	49.03481687	54.45039494	0	0	-8.81871998	-8.38140965	-17.50883979	37.86393227	51.03721818	0	0
4.8	0.00553067	4.47788545	175.7618355	0	0.8469944	-0.44282974	1.63261805	3.75731263	-4.56358628	22.81232071	0.39815011	18.68877215	21.94153539	-8.12991257	-10.70119606	0.29672454	0.00517882	4.66572121	-6.5890198	-0.57690754	2.86990399	8.03281912	-7.4585703	-14.43569376	49.10779054	54.46641917	0	0	-9.05559074	-8.29395129	-17.86669231	37.36223362	51.0311836	0	0
4.81	0.22868818	4.70845196	175.5257243	0	0.84545739	-0.44294576	1.39997182	3.99649024	-4.28666255	22.81072212	0.39812221	19.04666368	22.48684852	-8.43479354	-10.74428118	0.28187774	0.00491969	5.14233326	-6.56458565	-0.77740187	2.81862431	8.27029522	-7.37953568	-14.57850283	49.12389113	54.47759553	0	0	-9.18922816	-8.22365334	-18.15364001	36.98398064	51.02815629	0	0
4.82	0.40426775	4.92756737	175.3141978	0	0.84399051	-0.44300818	1.07943045	4.2040208	-4.08006374	22.76037171	0.39724343	19.38868653	22.90523826	-8.70710701	-10.717886	0.27063274	0.00472343	5.50367402	-6.58930546	-1.08557963	2.80271091	8.49602057	-7.24706556	-14.79763002	49.07093542	54.49211036	0	0	-9.297902	-8.12291481	-18.55604677	36.50354964	51.02576963	0	0
4.83	0.55845973	5.12813539	175.0742369	0	0.8425306	-0.44305915	0.69391954	4.394915	-3.78449411	22.6472808	0.39526962	19.68353071	23.21703248	-8.94848486	-10.56184831	0.26434743	0.00461373	5.81198401	-6.83485072	-1.37345643	2.73970072	8.52692264	-7.1973065	-14.86913919	49.0441118	54.49593586	0	0	-9.33132534	-8.10400892	-18.66774834	36.3481904	51.02431251	0	0
4.84	0.68044284	5.32381697	174.8439694	0	0.84114126	-0.44305477	0.22972062	4.56908111	-3.51384481	22.46940461	0.39216509	19.96445673	23.41647488	-9.16795114	-10.3392168	0.26312838	0.00459246	6.01968151	-6.95675986	-1.69440528	2.74423697	8.66028613	-7.08865502	-15.02704162	48.98561822	54.50281035	0	0	-9.45207531	-8.05565202	-18.87986851	36.04503056	51.019989	0	0
4.85	0.82487224	5.41100391	174.6015599	0	0.83970306	-0.44298992	-0.1520297	4.58001146	-3.43292938	22.39584157	0.39088117	20.18092634	23.57361184	-9.27992694	-10.17612677	0.26447582	0.00461597	6.0458924	-7.20892357	-1.97122779	2.6544059	8.61558763	-6.97615925	-15.22571714	48.87434388	54.50898831	0	0	-9.4850196	-7.99331741	-19.10041511	35.74284086	51.01577067	0	0
4.86	0.85741884	5.6606617	174.3863855	0	0.83848323	-0.44293354	-0.87899537	4.84328782	-2.90665393	21.94654327	0.38303944	20.45129573	23.53401869	-9.51478895	-9.6872225	0.27191516	0.00474581	6.06946263	-7.36666019	-2.28989657	2.65940149	8.46635206	-6.90320163	-15.42340735	48.73927043	54.51274799	0	0	-9.48919511	-7.92233133	-19.29372857	35.52735885	51.01359377	0	0
4.87	0.82680423	5.7755836	174.1587343	0	0.83735934	-0.44281326	-1.62020076	4.9002753	-2.59050018	21.58336401	0.37670077	20.62726437	23.3586263	-9.61910896	-9.36893425	0.28123548	0.00490849	5.90327528	-7.62576707	-2.62235762	2.75383921	8.29417639	-6.81374147	-15.57054194	48.63324005	54.51528013	0	0	-9.54061171	-7.8591944	-19.43957542	35.3873035	51.01288088	0	0
4.88	0.89108841	5.86125645	173.9272069	0	0.83617619	-0.44263775	-2.26155684	4.92929477	-2.26740923	21.22289887	0.37040946	20.80898493	23.2409582	-9.69863024	-9.03173079	0.29596814	0.00516562	5.53662291	-7.63359026	-3.04073968	2.74119881	7.998151	-6.7063698	-15.75057584	48.46364252	54.51651488	0	0	-9.58276692	-7.78261842	-19.59798951	35.26644757	51.01280158	0	0
4.89	1.12823206	5.87486202	173.6044484	0	0.83479069	-0.442411	-2.55719165	4.80530645	-2.27628193	21.15081425	0.36915135	20.91798404	23.25406655	-9.7584309	-8.90830917	0.33456033	0.00583918	5.41795273	-7.45105735	-3.48616636	2.89421264	7.62639072	-6.59638877	-16.20801163	48.07115194	54.52278231	0	0	-9.52378491	-7.65325442	-19.97055877	35.0412365	51.01387013	0	0
4.9	0.84798262	5.91148637	173.4489565	0	0.83425432	-0.44213936	-3.79347669	4.80640836	-1.57076106	20.37899726	0.3556806	21.04357187	22.67695277	-9.74850625	-8.61523231	0.34848143	0.00608215	4.38236365	-7.04062253	-3.80529575	3.0217118	7.22681168	-6.42258778	-16.42445004	47.74600963	54.52152948	0	0	-9.67334315	-7.55018689	-20.16959524	34.89712729	51.01307119	0	0
4.91	0.95864126	5.81376135	173.2109074	0	0.83325699	-0.44175488	-4.35100786	4.60051772	-1.28934228	20.06425217	0.35018726	21.17758519	22.50301998	-9.65337844	-8.42791719	0.39168016	0.00683611	3.63252999	-6.68124024	-4.08469977	3.24325923	6.8602628	-6.29676316	-16.59563561	47.38842562	54.51681597	0	0	-9.75641865	-7.42496945	-20.30961995	34.81378993	51.01341446	0	0
4.92	0.91629325	5.71439438	172.9856144	0	0.83261847	-0.44136343	-5.13726358	4.37936332	-0.96919092	19.62734926	0.34256187	21.21293347	22.13813729	-9.5763918	-8.46204331	0.45195168	0.00788804	2.60233532	-6.34531786	-4.24483366	3.33860673	6.44450865	-6.18116988	-16.74890832	47.00887509	54.5096343	0	0	-9.84540462	-7.33462151	-20.42261983	34.74370289	51.01309035	0	0
